<svg xmlns="http://www.w3.org/2000/svg" viewBox="0 0 1200 400" role="img" aria-labelledby="title desc">
  <title id="title">Monarch butterflies at sunset</title>
  <desc id="desc">Stylized monarch butterflies flying over a field beneath an orange sunset.</desc>
  <defs>
    <linearGradient id="sky" x1="0" y1="0" x2="0" y2="1">
      <stop offset="0" stop-color="#5c2742"/>
      <stop offset="0.52" stop-color="#e66a32"/>
      <stop offset="1" stop-color="#f7cb68"/>
    </linearGradient>
    <g id="butterfly">
      <path d="M0 0 C-50-80-120-70-105 8 C-95 55-40 55 0 10Z" fill="#e66a21" stroke="#241b19" stroke-width="8"/>
      <path d="M0 0 C50-80 120-70 105 8 C95 55 40 55 0 10Z" fill="#e66a21" stroke="#241b19" stroke-width="8"/>
      <path d="M0 8 C-35 25-50 78-10 80 C9 78 10 40 8 10Z" fill="#f3a52c" stroke="#241b19" stroke-width="7"/>
      <path d="M0 8 C35 25 50 78 10 80 C-9 78-10 40-8 10Z" fill="#f3a52c" stroke="#241b19" stroke-width="7"/>
      <rect x="-5" y="-8" width="10" height="90" rx="5" fill="#241b19"/>
      <path d="M-2-8 Q-24-35-38-28 M2-8 Q24-35 38-28" fill="none" stroke="#241b19" stroke-width="4"/>
      <g fill="#fff7dc">
        <circle cx="-77" cy="-36" r="7"/><circle cx="77" cy="-36" r="7"/>
        <circle cx="-101" cy="-2" r="6"/><circle cx="101" cy="-2" r="6"/>
        <circle cx="-30" cy="54" r="5"/><circle cx="30" cy="54" r="5"/>
      </g>
    </g>
  </defs>
  <rect width="1200" height="400" fill="url(#sky)"/>
  <circle cx="860" cy="95" r="58" fill="#fff0a8" opacity=".85"/>
  <path d="M0 335 Q170 285 320 332 T620 326 T930 320 T1200 330 V400 H0Z" fill="#402d27"/>
  <g fill="#6e4c32">
    <path d="M90 400 Q105 305 118 250 Q126 304 138 400Z"/><path d="M165 400 Q170 320 190 272 Q193 330 205 400Z"/>
    <path d="M1020 400 Q1025 315 1040 260 Q1048 325 1063 400Z"/><path d="M1100 400 Q1110 330 1130 285 Q1132 345 1140 400Z"/>
  </g>
  <use href="#butterfly" transform="translate(320 120) scale(.65) rotate(-10)"/>
  <use href="#butterfly" transform="translate(670 165) scale(.42) rotate(9)"/>
  <use href="#butterfly" transform="translate(980 205) scale(.28) rotate(-12)"/>
</svg>
