<svg xmlns="http://www.w3.org/2000/svg" viewBox="0 0 600 620" role="img" aria-labelledby="title desc">
  <title id="title">Monarch butterfly on flowers</title>
  <desc id="desc">Stylized close view of a monarch butterfly resting on purple flowers.</desc>
  <defs>
    <linearGradient id="bg" x1="0" y1="0" x2="1" y2="1">
      <stop stop-color="#f9dca0"/><stop offset="1" stop-color="#8e5c73"/>
    </linearGradient>
  </defs>
  <rect width="600" height="620" fill="url(#bg)"/>
  <g stroke="#496437" stroke-width="10" fill="none">
    <path d="M60 620 Q170 410 290 320"/><path d="M210 620 Q270 455 400 350"/><path d="M390 620 Q410 480 510 390"/>
  </g>
  <g fill="#76518a" stroke="#fff0bd" stroke-width="5">
    <circle cx="275" cy="330" r="30"/><circle cx="235" cy="350" r="28"/><circle cx="315" cy="355" r="27"/>
    <circle cx="405" cy="370" r="31"/><circle cx="455" cy="390" r="27"/><circle cx="500" cy="405" r="25"/>
    <circle cx="135" cy="430" r="30"/><circle cx="95" cy="455" r="24"/><circle cx="175" cy="465" r="25"/>
  </g>
  <g transform="translate(320 230) rotate(-13)">
    <path d="M0 0 C-85-145-225-120-185 20 C-160 108-70 100 0 20Z" fill="#e96522" stroke="#241b19" stroke-width="15"/>
    <path d="M0 0 C85-145 225-120 185 20 C160 108 70 100 0 20Z" fill="#e96522" stroke="#241b19" stroke-width="15"/>
    <path d="M0 20 C-65 50-78 145-15 150 C15 143 18 66 10 20Z" fill="#f6a52d" stroke="#241b19" stroke-width="13"/>
    <path d="M0 20 C65 50 78 145 15 150 C-15 143-18 66-10 20Z" fill="#f6a52d" stroke="#241b19" stroke-width="13"/>
    <path d="M-180 15 L-70-20 L-40 90 M180 15 L70-20 L40 90" fill="none" stroke="#241b19" stroke-width="10"/>
    <rect x="-8" y="-20" width="16" height="180" rx="8" fill="#241b19"/>
    <path d="M-3-18 Q-35-65-58-48 M3-18 Q35-65 58-48" fill="none" stroke="#241b19" stroke-width="7"/>
    <g fill="#fff8dc">
      <circle cx="-145" cy="-36" r="11"/><circle cx="145" cy="-36" r="11"/>
      <circle cx="-184" cy="17" r="10"/><circle cx="184" cy="17" r="10"/>
      <circle cx="-65" cy="112" r="9"/><circle cx="65" cy="112" r="9"/>
    </g>
  </g>
</svg>
